<svg width="30" height="30" viewBox="0 0 30 30" fill="none" xmlns="http://www.w3.org/2000/svg">
<path d="M15 2.44286C21.9429 2.44286 27.5571 8.05714 27.5571 15C27.5571 21.9429 21.9429 27.5571 15 27.5571C8.05714 27.5571 2.44286 21.9429 2.44286 15C2.44286 8.05714 8.05714 2.44286 15 2.44286ZM15 0C6.72857 0 0 6.72857 0 15C0 23.2714 6.72857 30 15 30C23.2714 30 30 23.2714 30 15C30 6.72857 23.2714 0 15 0Z" fill="white"/>
<path d="M16.7143 8.61428L16.3714 17.1429C16.3286 17.8286 15.7714 18.3429 15.1286 18.3C14.4857 18.2571 13.9714 17.7429 13.9714 17.1429L13.6286 8.61428C13.5857 7.75714 14.2714 7.02856 15.1286 7.02856C15.9857 7.02856 16.7143 7.67142 16.7143 8.52857C16.7143 8.52857 16.7143 8.57142 16.7143 8.61428Z" fill="white"/>
<path d="M15.1714 23.1429C16.0709 23.1429 16.8 22.4137 16.8 21.5143C16.8 20.6148 16.0709 19.8857 15.1714 19.8857C14.272 19.8857 13.5429 20.6148 13.5429 21.5143C13.5429 22.4137 14.272 23.1429 15.1714 23.1429Z" fill="white"/>
</svg>
