<svg width="20" height="22" viewBox="0 0 20 22" fill="none" xmlns="http://www.w3.org/2000/svg">
<path d="M14.71 10.71C14.617 10.8037 14.5064 10.8781 14.3846 10.9289C14.2627 10.9797 14.132 11.0058 14 11.0058C13.868 11.0058 13.7373 10.9797 13.6154 10.9289C13.4936 10.8781 13.383 10.8037 13.29 10.71C13.1963 10.617 13.1219 10.5064 13.0711 10.3846C13.0203 10.2627 12.9942 10.132 12.9942 10C12.9942 9.86799 13.0203 9.73728 13.0711 9.61543C13.1219 9.49357 13.1963 9.38296 13.29 9.29L15.59 7H2C1.73478 7 1.48043 6.89465 1.29289 6.70711C1.10536 6.51957 1 6.26522 1 6C1 5.73479 1.10536 5.48043 1.29289 5.2929C1.48043 5.10536 1.73478 5 2 5H15.59L13.29 2.71C13.1017 2.5217 12.9959 2.2663 12.9959 2C12.9959 1.7337 13.1017 1.47831 13.29 1.29C13.4783 1.1017 13.7337 0.995911 14 0.995911C14.2663 0.995911 14.5217 1.1017 14.71 1.29L18.71 5.29C18.8037 5.38297 18.8781 5.49357 18.9289 5.61543C18.9797 5.73728 19.0058 5.86799 19.0058 6C19.0058 6.13201 18.9797 6.26272 18.9289 6.38458C18.8781 6.50644 18.8037 6.61704 18.71 6.71L14.71 10.71Z" fill="white"/>
<path d="M5.29 11.29C5.4783 11.1017 5.7337 10.9959 6 10.9959C6.2663 10.9959 6.5217 11.1017 6.71 11.29C6.8983 11.4783 7.00409 11.7337 7.00409 12C7.00409 12.2663 6.8983 12.5217 6.71 12.71L4.41 15H18C18.2652 15 18.5196 15.1054 18.7071 15.2929C18.8946 15.4804 19 15.7348 19 16C19 16.2652 18.8946 16.5196 18.7071 16.7071C18.5196 16.8946 18.2652 17 18 17H4.41L6.71 19.29C6.80373 19.383 6.87812 19.4936 6.92889 19.6154C6.97966 19.7373 7.0058 19.868 7.0058 20C7.0058 20.132 6.97966 20.2627 6.92889 20.3846C6.87812 20.5064 6.80373 20.617 6.71 20.71C6.61704 20.8037 6.50644 20.8781 6.38458 20.9289C6.26272 20.9797 6.13201 21.0058 6 21.0058C5.86799 21.0058 5.73728 20.9797 5.61542 20.9289C5.49356 20.8781 5.38296 20.8037 5.29 20.71L1.29 16.71C1.19627 16.617 1.12188 16.5064 1.07111 16.3846C1.02034 16.2627 0.994202 16.132 0.994202 16C0.994202 15.868 1.02034 15.7373 1.07111 15.6154C1.12188 15.4936 1.19627 15.383 1.29 15.29L5.29 11.29Z" fill="white"/>
</svg>
